<svg width="25" height="25" viewBox="0 0 25 25" fill="none" xmlns="http://www.w3.org/2000/svg">
<path d="M14.85 4.95V8.75H13.35V4.95C13.35 4.68 13.11 4.55 12.95 4.55C12.9 4.55 12.85 4.56 12.8 4.58L4.87 7.57C4.34 7.77 4 8.27 4 8.84V9.51C3.09 10.19 2.5 11.28 2.5 12.51V8.84C2.5 7.65 3.23 6.59 4.34 6.17L12.28 3.17C12.5 3.09 12.73 3.05 12.95 3.05C13.95 3.05 14.85 3.86 14.85 4.95Z" fill="white"/>
<path d="M21.4999 15.5V16.5C21.4999 16.77 21.2899 16.99 21.0099 17H19.5499C19.0199 17 18.5399 16.61 18.4999 16.09C18.4699 15.78 18.5899 15.49 18.7899 15.29C18.9699 15.1 19.2199 15 19.4899 15H20.9999C21.2899 15.01 21.4999 15.23 21.4999 15.5Z" fill="white"/>
<path d="M19.48 13.95H20.5C21.05 13.95 21.5 13.5 21.5 12.95V12.51C21.5 10.44 19.81 8.75 17.74 8.75H6.26C5.41 8.75 4.63 9.03 4 9.51C3.09 10.19 2.5 11.28 2.5 12.51V19.24C2.5 21.31 4.19 23 6.26 23H17.74C19.81 23 21.5 21.31 21.5 19.24V19.05C21.5 18.5 21.05 18.05 20.5 18.05H19.63C18.67 18.05 17.75 17.46 17.5 16.53C17.29 15.77 17.54 15.04 18.04 14.55C18.41 14.17 18.92 13.95 19.48 13.95ZM14 13.75H7C6.59 13.75 6.25 13.41 6.25 13C6.25 12.59 6.59 12.25 7 12.25H14C14.41 12.25 14.75 12.59 14.75 13C14.75 13.41 14.41 13.75 14 13.75Z" fill="white"/>
</svg>
