<svg width="25" height="25" viewBox="0 0 25 25" fill="none" xmlns="http://www.w3.org/2000/svg">
<path d="M22 7H12.23C10.57 7 9.01 7.66 7.87 8.73C7.54 7.73 6.61 7 5.5 7C4.12 7 3 8.12 3 9.5C3 10.88 4.12 12 5.5 12C5.71 12 5.91 11.97 6.11 11.92C6.06 12.17 6.02 12.43 6.01 12.7C5.83 16.38 8.96 19.38 12.69 18.97C15.24 18.69 17.37 16.71 17.88 14.2C18.03 13.49 18.03 12.8 17.94 12.14C17.85 11.54 18.32 11.01 18.93 11.01H21.69C22.56 11 23 10.55 23 10V8C23 7.45 22.55 7 22 7ZM5.5 10C5.22 10 5 9.78 5 9.5C5 9.22 5.22 9 5.5 9C5.78 9 6 9.22 6 9.5C6 9.78 5.78 10 5.5 10ZM12 16C10.34 16 9 14.66 9 13C9 11.34 10.34 10 12 10C13.66 10 15 11.34 15 13C15 14.66 13.66 16 12 16Z" fill="white"/>
<path d="M12 15C13.1046 15 14 14.1046 14 13C14 11.8954 13.1046 11 12 11C10.8954 11 10 11.8954 10 13C10 14.1046 10.8954 15 12 15Z" fill="white"/>
</svg>
