<svg width="24" height="24" viewBox="0 0 24 24" fill="none" xmlns="http://www.w3.org/2000/svg">
<path d="M17.6 5.31L11.95 2.27C11.35 1.95 10.64 1.95 10.04 2.27L4.39998 5.31C3.98998 5.54 3.72998 5.98 3.72998 6.46C3.72998 6.95 3.97998 7.39 4.39998 7.61L10.05 10.65C10.35 10.81 10.68 10.89 11 10.89C11.32 10.89 11.66 10.81 11.95 10.65L17.6 7.61C18.01 7.39 18.27 6.95 18.27 6.46C18.27 5.98 18.01 5.54 17.6 5.31Z" fill="white"/>
<path d="M9.12 11.71L3.87 9.09C3.46 8.88 3 8.91 2.61 9.14C2.23 9.38 2 9.79 2 10.24V15.2C2 16.06 2.48 16.83 3.25 17.22L8.5 19.84C8.68 19.93 8.88 19.98 9.08 19.98C9.31 19.98 9.55 19.91 9.76 19.79C10.14 19.55 10.37 19.14 10.37 18.69V13.73C10.36 12.87 9.88 12.1 9.12 11.71Z" fill="white"/>
<path d="M19.9999 10.24V12.7C19.5199 12.56 19.0099 12.5 18.4999 12.5C17.1399 12.5 15.8099 12.97 14.7599 13.81C13.3199 14.94 12.4999 16.65 12.4999 18.5C12.4999 18.99 12.5599 19.48 12.6899 19.95C12.5399 19.93 12.3899 19.87 12.2499 19.78C11.8699 19.55 11.6399 19.14 11.6399 18.69V13.73C11.6399 12.87 12.1199 12.1 12.8799 11.71L18.1299 9.09C18.5399 8.88 18.9999 8.91 19.3899 9.14C19.7699 9.38 19.9999 9.79 19.9999 10.24Z" fill="white"/>
<path d="M22.58 21.5L21.74 20.66C22.18 20 22.44 19.2 22.44 18.35C22.44 16.02 20.55 14.13 18.22 14.13C15.89 14.13 14 16.02 14 18.35C14 20.68 15.89 22.57 18.22 22.57C19.07 22.57 19.87 22.31 20.53 21.87L21.37 22.71C21.54 22.88 21.75 22.96 21.97 22.96C22.19 22.96 22.41 22.88 22.57 22.71C22.91 22.37 22.91 21.83 22.58 21.5Z" fill="white"/>
</svg>
