<svg width="25" height="25" viewBox="0 0 25 25" fill="none" xmlns="http://www.w3.org/2000/svg">
<path d="M11.9999 14C6.98991 14 2.90991 17.36 2.90991 21.5C2.90991 21.78 3.12991 22 3.40991 22H20.5899C20.8699 22 21.0899 21.78 21.0899 21.5C21.0899 17.36 17.0099 14 11.9999 14Z" fill="white"/>
<path d="M16.8501 5.80002C16.7301 5.31002 16.5301 4.83002 16.2501 4.39002C16.0601 4.07002 15.8101 3.75002 15.5401 3.47002C14.6401 2.57002 13.4701 2.08002 12.2701 2.02002C10.9101 1.93002 9.52009 2.43002 8.47009 3.47002C7.48009 4.45002 6.98009 5.76002 7.00009 7.08002C7.01009 8.33002 7.51009 9.58002 8.46009 10.54C9.12009 11.2 9.93009 11.64 10.8001 11.84C11.2701 11.96 11.7701 12.02 12.2701 11.98C13.4601 11.93 14.6201 11.46 15.5301 10.54C16.8201 9.25002 17.2601 7.44002 16.8501 5.80002ZM14.0001 9.00002C13.6401 9.36002 13.0401 9.36002 12.6801 9.00002L11.9901 8.31002L11.3301 8.97002C10.9701 9.33002 10.3701 9.33002 10.0101 8.97002C9.64009 8.60002 9.64009 8.01002 10.0001 7.65002L10.6601 6.99002L10.0201 6.37002C9.66009 6.00002 9.66009 5.41002 10.0201 5.03002C10.3901 4.67002 10.9801 4.67002 11.3601 5.03002L11.9801 5.67002L12.6501 5.00002C13.0101 4.64002 13.6001 4.64002 13.9701 5.00002C14.3301 5.36002 14.3301 5.96002 13.9701 6.32002L13.3101 6.98002L14.0001 7.68002C14.3601 8.04002 14.3601 8.64002 14.0001 9.00002Z" fill="white"/>
</svg>
