<svg width="26" height="26" viewBox="0 0 26 26" fill="none" xmlns="http://www.w3.org/2000/svg">
<path d="M16.3341 13.9148L7.16488 4.7456C6.74367 4.3244 6.06328 4.3244 5.64208 4.7456L2.58568 7.802C2.16448 8.2232 2.16448 8.9036 2.58568 9.3248L11.7549 18.494C12.1761 18.9152 12.8565 18.9152 13.2777 18.494L16.3341 15.4376C16.7553 15.0164 16.7553 14.336 16.3341 13.9148Z" fill="white"/>
<path d="M15.5674 19.2608L19.3798 23.0732C19.801 23.4944 20.4922 23.4944 20.9134 23.0732C21.3346 22.652 21.3346 21.9608 20.9134 21.5396L17.101 17.7272L15.5674 19.2608Z" fill="white"/>
<path d="M20.06 9.8C22.1477 9.8 23.84 8.10764 23.84 6.02001C23.84 3.93237 22.1477 2.24001 20.06 2.24001C17.9724 2.24001 16.28 3.93237 16.28 6.02001C16.28 8.10764 17.9724 9.8 20.06 9.8Z" fill="white"/>
</svg>
