<svg width="25" height="25" viewBox="0 0 25 25" fill="none" xmlns="http://www.w3.org/2000/svg">
<path d="M15 18.5C14.3 18.5 13.7083 18.2583 13.225 17.775C12.7417 17.2917 12.5 16.7 12.5 16C12.5 15.3 12.7417 14.7083 13.225 14.225C13.7083 13.7417 14.3 13.5 15 13.5C15.7 13.5 16.2917 13.7417 16.775 14.225C17.2583 14.7083 17.5 15.3 17.5 16C17.5 16.7 17.2583 17.2917 16.775 17.775C16.2917 18.2583 15.7 18.5 15 18.5ZM5.5 22.5C4.95 22.5 4.47933 22.3043 4.088 21.913C3.69667 21.5217 3.50067 21.0507 3.5 20.5V6.5C3.5 5.95 3.696 5.47933 4.088 5.088C4.48 4.69667 4.95067 4.50067 5.5 4.5H6.5V2.5H8.5V4.5H16.5V2.5H18.5V4.5H19.5C20.05 4.5 20.521 4.696 20.913 5.088C21.305 5.48 21.5007 5.95067 21.5 6.5V20.5C21.5 21.05 21.3043 21.521 20.913 21.913C20.5217 22.305 20.0507 22.5007 19.5 22.5H5.5ZM5.5 20.5H19.5V10.5H5.5V20.5Z" fill="white"/>
</svg>
